/* XPM */
static char *f9a1e1f804914134f98b4be2f51e83dbPfbfOv7MYPubSvzO[] = {
/* columns rows colors chars-per-pixel */
"30 29 6 1 ",
"  c #639BFF",
". c #743F39",
"X c white",
"o c #C28569",
"O c #B86F50",
"+ c #124E89",
/* pixels */
"               .XX            ",
"              o.XX            ",
"              o.XX            ",
"              ooXX            ",
"               .XX            ",
"               XXX            ",
"               XX             ",
"  OOOOOOOO    XXX             ",
" O  O  O  O   XX              ",
" OOO.OO.OO.O  X.              ",
" O........oO   .              ",
" OooooooooooOOO.OOOOOOOOO     ",
" Ooooooooooo  O. O  O  OOOOOOO",
" OOOOOOOOOOo.o..o.oo.oo.O  O  ",
" Ooo.oo.oooOo............oo.oo",
" OOOOOOOO.ooOOOOOOOOOOOOOOOOOO",
" OO.......OOOoOooOooOooOOooOoo",
" OO.........OOOOOOOOOOOOOOOOOO",
" OO.........................O ",
" OO.........................O ",
"  O.......................OO  ",
"   .......................+   ",
"   +.....................+    ",
"    +..................+++    ",
"     ++++++++++++++++++++     ",
"           ++++++++           ",
"      +++            ++++     ",
"                              ",
"                              "
};
