/* XPM */
static char *_6eb0027a807475fab47954a6df6e3457WVjN8tk65kIOGWY[] = {
/* columns rows colors chars-per-pixel */
"31 30 3 1 ",
"  c #4D9262",
". c #3E734E",
"X c #7AB055",
/* pixels */
"                               ",
"                     .         ",
"                    . .        ",
"                     .         ",
"                               ",
"                               ",
"                X              ",
"                XX             ",
"     X          XX  X          ",
"     X           X.XX          ",
"     X X         .XX.          ",
"     X X          ..           ",
"       X                       ",
"                               ",
"                               ",
"                               ",
"X                             X",
"                               ",
"                               ",
"                               ",
"                               ",
"         .                     ",
"        . .                    ",
"         .                     ",
"                        X      ",
"                      X X      ",
"                      X X      ",
"                      X        ",
"                               ",
"            X                  "
};
