/* XPM */
static char *_8fb116a42884daafc1bb5877ff2bdaaSpiuXR9V4WYezcLe_0[] = {
/* columns rows colors chars-per-pixel */
"16 16 8 1 ",
"  c None",
". c gray20",
"X c #345C98",
"o c #678FCB",
"O c #B9B5C3",
"+ c black",
"@ c black",
"# c black",
/* pixels */
"                ",
"                ",
"                ",
"       .....    ",
"       .Xooo.   ",
"      .Xo.....  ",
"     .Xo......  ",
"    .Xoo......  ",
"    .X.o..OO.O  ",
"    ...oX.......",
"    .ooooo......",
"   .XXoooX...   ",
"   .X.ooX....   ",
"   ..ooo.....   ",
"   .....   ..   ",
"   .       .    "
};
