/* XPM */
static char *_e2bad2a125e4262a32ea777c3ccb0cclYRktE7lACG5zpmz[] = {
/* columns rows colors chars-per-pixel */
"47 37 7 1 ",
"  c None",
". c #181425",
"X c #E4A672",
"o c #5A6988",
"O c #8B9BB4",
"+ c #EAD4AA",
"@ c white",
/* pixels */
"                                               ",
"                                               ",
"                                               ",
"        .... ..                                ",
"       .........                               ",
"      .....@@@...                              ",
"     .....@@@@@...                             ",
"   .......@.@.@....                            ",
"   ........@@@.....                            ",
"   ........@.@.....                            ",
"   ................                            ",
"      .X+++++++.                               ",
"      .X+..+++..                               ",
"      .X+..+++..                               ",
"      .X+++++++.                               ",
"      .X+++++++.                               ",
"      .X+++++++.                               ",
"      .OOOOOOOO.                               ",
"      .oooooooo.                               ",
"      .oooooooo.                               ",
"      .OO....OO.                               ",
"      .O.   .O.                                ",
"      ..    ..                                 ",
"                                               ",
"                                               ",
"                                               ",
"                                               ",
"                                               ",
"                                               ",
"                                               ",
"                                               ",
"                                               ",
"                                               ",
"                                               ",
"                                               ",
"                                               ",
"                                               "
};
