/* XPM */
static char *_33bbd8bb31c444a8f1e21d2847dff2dKXox7H4XAXgk4LeJ[] = {
/* columns rows colors chars-per-pixel */
"31 28 2 1 ",
"  c #FEE761",
". c #FEAE34",
/* pixels */
"                             ..",
"                            ...",
"                           ... ",
"                          ...  ",
"                         ...   ",
"                        ...    ",
"                      ....     ",
"                    .....      ",
"                   .....       ",
"                 .....         ",
"              ......           ",
"           ........            ",
"        .........              ",
"      ........                 ",
"    .......                    ",
"   .......                     ",
"  ......                       ",
"  .....                        ",
" ....                          ",
" ....                          ",
" ...                           ",
"...                            ",
"...                            ",
"..                             ",
"..                             ",
".                              ",
".                              ",
"                               "
};
