/* XPM */
static char *d30c4f47ab034b52af5fa2bc4aefe449QOLl2hzBoqrZcfMe[] = {
/* columns rows colors chars-per-pixel */
"32 31 2 1 ",
"  c None",
". c #639BFF",
/* pixels */
"............................... ",
"............................... ",
"............................... ",
"............................... ",
"............................... ",
"............................... ",
"............................... ",
"............................... ",
"............................... ",
"............................... ",
"............................... ",
"............................... ",
"............................... ",
"............................... ",
"............................... ",
"............................... ",
"............................... ",
"............................... ",
"............................... ",
"............................... ",
"............................... ",
"............................... ",
"............................... ",
"............................... ",
"............................... ",
"............................... ",
"............................... ",
"............................... ",
"............................... ",
"............................... ",
"                                "
};
